<svg width="966" height="7" viewBox="0 0 966 7" fill="none" xmlns="http://www.w3.org/2000/svg">
<path d="M0.332845 3.5C0.332845 4.97276 1.52675 6.16667 2.99951 6.16667C4.47227 6.16667 5.66618 4.97276 5.66618 3.5C5.66618 2.02724 4.47227 0.833333 2.99951 0.833333C1.52675 0.833333 0.332845 2.02724 0.332845 3.5ZM960.333 3.5C960.333 4.97276 961.527 6.16667 963 6.16667C964.473 6.16667 965.667 4.97276 965.667 3.5C965.667 2.02724 964.473 0.833333 963 0.833333C961.527 0.833333 960.333 2.02724 960.333 3.5ZM2.99951 4H963V3H2.99951V4Z" fill="#B5986D"/>
</svg>
