<svg width="60" height="45" viewBox="0 0 60 45" fill="none" xmlns="http://www.w3.org/2000/svg">
<path d="M13.9584 18.1666C13.308 18.1666 12.6838 18.2658 12.0626 18.3562C12.2638 17.6796 12.4709 16.9912 12.8034 16.3729C13.1359 15.4746 13.6551 14.6958 14.1713 13.9112C14.603 13.0625 15.3642 12.4879 15.9242 11.7616C16.5105 11.0558 17.3096 10.5862 17.9426 9.99998C18.5638 9.38748 19.3776 9.08123 20.0251 8.64957C20.7017 8.26165 21.2909 7.8329 21.9209 7.62873L23.493 6.98123L24.8755 6.40665L23.4609 0.75415L21.7196 1.17415C21.1626 1.31415 20.483 1.47748 19.7101 1.6729C18.9196 1.81873 18.0767 2.21832 17.1376 2.5829C16.2101 2.99707 15.1367 3.27707 14.1392 3.94207C13.1359 4.5779 11.978 5.10873 10.9571 5.9604C9.96839 6.83832 8.77547 7.59957 7.89464 8.71665C6.93214 9.76082 5.98131 10.8575 5.24339 12.1058C4.38881 13.2958 3.80839 14.6025 3.19589 15.8946C2.64172 17.1866 2.19547 18.5079 1.83089 19.7912C1.13964 22.3637 0.830474 24.8079 0.710891 26.8992C0.611724 28.9933 0.670057 30.7346 0.792557 31.9946C0.836307 32.5896 0.917974 33.1671 0.976308 33.5667L1.04922 34.0566L1.12506 34.0392C1.64382 36.4624 2.83803 38.6893 4.56953 40.4622C6.30104 42.2351 8.49909 43.4815 10.9094 44.0574C13.3197 44.6332 15.8439 44.5149 18.1898 43.7162C20.5357 42.9174 22.6075 41.4708 24.1656 39.5437C25.7237 37.6166 26.7044 35.2878 26.9942 32.8267C27.284 30.3655 26.8712 27.8726 25.8034 25.6363C24.7356 23.4 23.0565 21.5117 20.9603 20.1898C18.8641 18.8679 16.4366 18.1665 13.9584 18.1666ZM46.0417 18.1666C45.3913 18.1666 44.7671 18.2658 44.1459 18.3562C44.3471 17.6796 44.5542 16.9912 44.8867 16.3729C45.2192 15.4746 45.7384 14.6958 46.2546 13.9112C46.6863 13.0625 47.4476 12.4879 48.0076 11.7616C48.5938 11.0558 49.393 10.5862 50.0259 9.99998C50.6471 9.38748 51.4609 9.08123 52.1084 8.64957C52.7851 8.26165 53.3742 7.8329 54.0042 7.62873L55.5763 6.98123L56.9588 6.40665L55.5442 0.75415L53.803 1.17415C53.2459 1.31415 52.5663 1.47748 51.7934 1.6729C51.003 1.81873 50.1601 2.21832 49.2209 2.5829C48.2963 2.99998 47.2201 3.27707 46.2226 3.94498C45.2192 4.58082 44.0613 5.11165 43.0405 5.96332C42.0517 6.84123 40.8588 7.60248 39.978 8.71665C39.0155 9.76082 38.0646 10.8575 37.3267 12.1058C36.4721 13.2958 35.8917 14.6025 35.2792 15.8946C34.7251 17.1866 34.2788 18.5079 33.9142 19.7912C33.223 22.3637 32.9138 24.8079 32.7942 26.8992C32.6951 28.9933 32.7534 30.7346 32.8759 31.9946C32.9196 32.5896 33.0013 33.1671 33.0596 33.5667L33.1326 34.0566L33.2084 34.0392C33.7272 36.4624 34.9214 38.6893 36.6529 40.4622C38.3844 42.2351 40.5824 43.4815 42.9928 44.0574C45.4031 44.6332 47.9272 44.5149 50.2731 43.7162C52.619 42.9174 54.6908 41.4708 56.2489 39.5437C57.807 37.6166 58.7877 35.2878 59.0775 32.8267C59.3674 30.3655 58.9545 27.8726 57.8867 25.6363C56.8189 23.4 55.1398 21.5117 53.0436 20.1898C50.9475 18.8679 48.5199 18.1665 46.0417 18.1666Z" fill="#F8F8F8"/>
</svg>
